<?xml version="1.0" encoding="iso-8859-1"?>
<!-- Generator: Adobe Illustrator 19.0.0, SVG Export Plug-In . SVG Version: 6.00 Build 0)  -->
<svg version="1.1" id="Layer_1" xmlns="http://www.w3.org/2000/svg" xmlns:xlink="http://www.w3.org/1999/xlink" x="0px" y="0px"
	 viewBox="0 0 512.001 512.001" style="enable-background:new 0 0 512.001 512.001;" xml:space="preserve">
<g>
	<g>
		<path d="M212.742,97.49c-6.624-14.416-12.882-28.032-6.012-54.411c1.257-4.827-1.637-9.76-6.465-11.018
			c-4.826-1.259-9.76,1.637-11.016,6.465c-8.494,32.618,0.141,51.41,7.081,66.508c6.81,14.815,11.729,25.521,0.017,47.829
			c-2.318,4.416-0.618,9.877,3.799,12.197c1.339,0.703,2.776,1.037,4.191,1.037c3.248,0,6.389-1.758,8.004-4.836
			C228.182,131.086,220.333,114.007,212.742,97.49z"/>
	</g>
</g>
<g>
	<g>
		<path d="M284.521,82.947c-6.571-18.206-13.367-37.032-6.194-72.102c1-4.887-2.152-9.66-7.04-10.66
			c-4.884-1.002-9.66,2.153-10.66,7.04c-8.191,40.046-0.175,62.259,6.9,81.855c6.929,19.194,12.4,34.353-0.046,64.539
			c-1.902,4.612,0.295,9.893,4.907,11.793c1.127,0.465,2.293,0.684,3.44,0.684c3.549,0,6.917-2.106,8.355-5.592
			C299.291,123.866,291.783,103.064,284.521,82.947z"/>
	</g>
</g>
<g>
	<g>
		<path d="M307.625,493.936H102.119c-25.207,0-47.8-15.017-57.559-38.259l-4.407-10.497h121.718c4.99,0,9.033-4.044,9.033-9.033
			c0-4.989-4.043-9.033-9.033-9.033h-34.087c-42.938-33.483-67.499-83.683-67.499-138.207v-78.936h39.8
			c4.99,0,9.033-4.044,9.033-9.033c0-4.988-4.043-9.033-9.033-9.033H51.252c-4.99,0-9.033,4.044-9.033,9.033v87.968
			c0,30.866,7.061,60.365,20.989,87.679c9.519,18.671,22.195,35.812,37.227,50.529H26.564c-3.025,0-5.847,1.514-7.522,4.032
			c-1.674,2.518-1.978,5.709-0.806,8.497l9.667,23.026c12.582,29.967,41.713,49.331,74.216,49.331h205.506
			c4.99,0,9.033-4.044,9.033-9.033C316.658,497.98,312.613,493.936,307.625,493.936z"/>
	</g>
</g>
<g>
	<g>
		<path d="M390.988,403.741c4.253,0.608,8.544,0.938,12.829,0.938c49.986,0,90.654-40.667,90.654-90.653
			c0-40.579-27.196-76.09-65.645-87.126v-25.961c0-4.989-4.043-9.033-9.033-9.033H136.215c-4.99,0-9.033,4.044-9.033,9.033
			c0,4.988,4.043,9.033,9.033,9.033H410.76v24.013v40.915v14.007c0,21.882-3.965,43.065-11.476,62.752
			c-0.219,0.382-0.414,0.78-0.578,1.198c-4.955,12.635-11.403,24.705-19.161,35.877c-0.249,0.359-0.461,0.735-0.654,1.12
			c-9.825,13.883-21.762,26.448-35.628,37.261H202.821c-4.99,0-9.033,4.044-9.033,9.033c0,4.988,4.043,9.033,9.033,9.033h228.071
			l-4.407,10.497c-9.759,23.241-32.351,38.259-57.558,38.259h-25.17c-4.99,0-9.033,4.044-9.033,9.033
			c0,4.989,4.043,9.033,9.033,9.033h25.17c32.501,0,61.632-19.364,74.214-49.331l9.666-23.026c1.172-2.788,0.868-5.978-0.806-8.497
			c-1.675-2.518-4.498-4.032-7.522-4.032h-73.869C378.006,419.874,384.832,412.052,390.988,403.741z M428.78,292.093
			c5.229,5.935,8.275,13.656,8.275,21.933c0,11.74-6.245,22.228-15.651,28.148C426.037,326.009,428.507,309.269,428.78,292.093z
			 M407.836,376.585c2.047-4.017,3.929-8.085,5.679-12.194c23.742-4.586,41.604-25.69,41.604-50.365
			c0-18.811-10.142-35.789-26.295-44.787V245.88c28.13,10.341,47.581,37.434,47.581,68.146c0,40.025-32.563,72.587-72.589,72.587
			c-0.493,0-0.984-0.006-1.477-0.016C404.271,383.312,406.107,379.975,407.836,376.585z"/>
	</g>
</g>
<g>
</g>
<g>
</g>
<g>
</g>
<g>
</g>
<g>
</g>
<g>
</g>
<g>
</g>
<g>
</g>
<g>
</g>
<g>
</g>
<g>
</g>
<g>
</g>
<g>
</g>
<g>
</g>
<g>
</g>
</svg>
